<?xml version="1.0" standalone="no"?><!DOCTYPE svg PUBLIC "-//W3C//DTD SVG 1.1//EN" "http://www.w3.org/Graphics/SVG/1.1/DTD/svg11.dtd"><svg t="1546010314964" class="icon" style="" viewBox="0 0 1024 1024" version="1.1" xmlns="http://www.w3.org/2000/svg" p-id="1924" xmlns:xlink="http://www.w3.org/1999/xlink" width="200" height="200"><defs><style type="text/css"></style></defs><path d="M974.97178 555.401846l-86.803692 0c-23.957099 0-43.401846-19.444747-43.401846-43.401846s19.444747-43.401846 43.401846-43.401846l86.803692 0C998.928879 468.598154 1018.373626 488.042901 1018.373626 512S998.928879 555.401846 974.97178 555.401846z" p-id="1925"></path><path d="M832.039385 253.333099c-7.854418 7.854418-18.702066 12.715604-30.686242 12.715604-23.968352 0-43.401846-19.444747-43.401846-43.401846 0-11.984176 4.861187-22.831824 12.715604-30.686242l57.872879-57.872879c7.854418-7.854418 18.702066-12.715604 30.686242-12.715604 23.979604 0 43.401846 19.444747 43.401846 43.401846 0 11.984176-4.861187 22.831824-12.715604 30.686242L832.039385 253.333099z" p-id="1926"></path><path d="M512 815.824176c-167.530901 0-303.824176-136.293275-303.824176-303.824176 0-167.530901 136.293275-303.824176 303.824176-303.824176 167.519648 0 303.824176 136.304527 303.824176 303.824176C815.824176 679.519648 679.519648 815.824176 512 815.824176z" p-id="1927"></path><path d="M512 179.233758c-23.979604 0-43.401846-19.444747-43.401846-43.401846L468.598154 49.02822C468.598154 25.071121 488.020396 5.626374 512 5.626374c23.968352 0 43.401846 19.444747 43.401846 43.401846l0 86.803692C555.401846 159.800264 535.968352 179.233758 512 179.233758z" p-id="1928"></path><path d="M222.646857 266.048703c-11.984176 0-22.831824-4.861187-30.686242-12.715604l-57.872879-57.872879c-7.854418-7.854418-12.715604-18.702066-12.715604-30.686242 0-23.957099 19.444747-43.401846 43.401846-43.401846 11.984176 0 22.831824 4.861187 30.686242 12.715604l57.872879 57.872879c7.854418 7.854418 12.715604 18.702066 12.715604 30.686242C266.048703 246.603956 246.603956 266.048703 222.646857 266.048703z" p-id="1929"></path><path d="M179.245011 512c0 23.957099-19.444747 43.401846-43.401846 43.401846L49.02822 555.401846C25.071121 555.401846 5.626374 535.957099 5.626374 512s19.444747-43.401846 43.401846-43.401846l86.803692 0C159.800264 468.598154 179.245011 488.042901 179.245011 512z" p-id="1930"></path><path d="M191.960615 770.666901c7.854418-7.854418 18.702066-12.715604 30.686242-12.715604 23.968352 0 43.401846 19.444747 43.401846 43.401846 0 11.972923-4.861187 22.831824-12.715604 30.686242l-57.872879 57.872879c-7.854418 7.854418-18.702066 12.715604-30.686242 12.715604-23.968352 0-43.401846-19.444747-43.401846-43.401846 0-11.984176 4.861187-22.831824 12.715604-30.686242L191.960615 770.666901z" p-id="1931"></path><path d="M512 844.754989c23.968352 0 43.401846 19.444747 43.401846 43.401846l0 86.803692C555.401846 998.928879 535.968352 1018.373626 512 1018.373626c-23.979604 0-43.401846-19.444747-43.401846-43.401846l0-86.803692C468.598154 864.199736 488.020396 844.754989 512 844.754989z" p-id="1932"></path><path d="M801.353143 757.951297c11.984176 0 22.831824 4.861187 30.686242 12.715604l57.872879 57.872879c7.854418 7.854418 12.715604 18.702066 12.715604 30.686242 0 23.957099-19.444747 43.401846-43.401846 43.401846-11.984176 0-22.831824-4.861187-30.686242-12.715604l-57.872879-57.872879c-7.854418-7.854418-12.715604-18.702066-12.715604-30.686242C757.951297 777.384791 777.384791 757.951297 801.353143 757.951297z" p-id="1933"></path></svg>